 This file is part of set:
 PRIMOpreDPM
 Step parameters shigh(cm) slow(cm) Ecross(eV):
  5.000E-01  5.000E-01  5.000E+06
 ndata,granularity,mean_dif(%),max_dif(%) at(eV):
   512   1  2.825E-03  9.308E-01  2.194E+05
  energy(eV) -- ScatStrength
  1.9900000E+05  1.1270516E+01
  2.3970646E+05  8.3075951E+00
  2.8041292E+05  6.4451868E+00
  3.2111937E+05  5.1902128E+00
  3.6182583E+05  4.2979746E+00
  4.0253229E+05  3.6350521E+00
  4.4323875E+05  3.1262470E+00
  4.8394521E+05  2.7283779E+00
  5.2465166E+05  2.4092061E+00
  5.6535812E+05  2.1477347E+00
  6.0606458E+05  1.9304618E+00
  6.4677104E+05  1.7476465E+00
  6.8747750E+05  1.5920520E+00
  7.2818395E+05  1.4582784E+00
  7.6889041E+05  1.3422267E+00
  8.0959687E+05  1.2407388E+00
  8.5030333E+05  1.1513545E+00
  8.9100978E+05  1.0721346E+00
  9.3171624E+05  1.0015249E+00
  9.7242270E+05  9.3826965E-01
  1.0131292E+06  8.8134134E-01
  1.0538356E+06  8.2988211E-01
  1.0945421E+06  7.8316801E-01
  1.1352485E+06  7.4059461E-01
  1.1759550E+06  7.0165454E-01
  1.2166614E+06  6.6591887E-01
  1.2573679E+06  6.3302272E-01
  1.2980744E+06  6.0265865E-01
  1.3387808E+06  5.7457135E-01
  1.3794873E+06  5.4853828E-01
  1.4201937E+06  5.2436327E-01
  1.4609002E+06  5.0187295E-01
  1.5016067E+06  4.8091361E-01
  1.5423131E+06  4.6134634E-01
  1.5830196E+06  4.4304028E-01
  1.6237260E+06  4.2587879E-01
  1.6644325E+06  4.0975917E-01
  1.7051389E+06  3.9459064E-01
  1.7458454E+06  3.8029268E-01
  1.7865519E+06  3.6679441E-01
  1.8272583E+06  3.5403643E-01
  1.8679648E+06  3.4196607E-01
  1.9086712E+06  3.3053517E-01
  1.9493777E+06  3.1969968E-01
  1.9900841E+06  3.0941922E-01
  2.0307906E+06  2.9965657E-01
  2.0714971E+06  2.9037624E-01
  2.1122035E+06  2.8154521E-01
  2.1529100E+06  2.7313331E-01
  2.1936164E+06  2.6511295E-01
  2.2343229E+06  2.5745888E-01
  2.2750294E+06  2.5014792E-01
  2.3157358E+06  2.4315875E-01
  2.3564423E+06  2.3647175E-01
  2.3971487E+06  2.3006884E-01
  2.4378552E+06  2.2393331E-01
  2.4785616E+06  2.1804970E-01
  2.5192681E+06  2.1240372E-01
  2.5599746E+06  2.0698235E-01
  2.6006810E+06  2.0177371E-01
  2.6413875E+06  1.9676674E-01
  2.6820939E+06  1.9195106E-01
  2.7228004E+06  1.8731697E-01
  2.7635068E+06  1.8285537E-01
  2.8042133E+06  1.7855773E-01
  2.8449198E+06  1.7441604E-01
  2.8856262E+06  1.7042278E-01
  2.9263327E+06  1.6657087E-01
  2.9670391E+06  1.6285366E-01
  3.0077456E+06  1.5926488E-01
  3.0484521E+06  1.5579858E-01
  3.0891585E+06  1.5244907E-01
  3.1298650E+06  1.4921098E-01
  3.1705714E+06  1.4607925E-01
  3.2112779E+06  1.4304911E-01
  3.2519843E+06  1.4011607E-01
  3.2926908E+06  1.3727589E-01
  3.3333973E+06  1.3452455E-01
  3.3741037E+06  1.3185826E-01
  3.4148102E+06  1.2927343E-01
  3.4555166E+06  1.2676668E-01
  3.4962231E+06  1.2433479E-01
  3.5369295E+06  1.2197471E-01
  3.5776360E+06  1.1968360E-01
  3.6183425E+06  1.1745877E-01
  3.6590489E+06  1.1529766E-01
  3.6997554E+06  1.1319784E-01
  3.7404618E+06  1.1115697E-01
  3.7811683E+06  1.0917285E-01
  3.8218748E+06  1.0724336E-01
  3.8625812E+06  1.0536651E-01
  3.9032877E+06  1.0354036E-01
  3.9439941E+06  1.0176309E-01
  3.9847006E+06  1.0003295E-01
  4.0254070E+06  9.8348265E-02
  4.0661135E+06  9.6707393E-02
  4.1068200E+06  9.5108744E-02
  4.1475264E+06  9.3550801E-02
  4.1882329E+06  9.2032117E-02
  4.2289393E+06  9.0551311E-02
  4.2696458E+06  8.9107065E-02
  4.3103523E+06  8.7698118E-02
  4.3510587E+06  8.6323269E-02
  4.3917652E+06  8.4981365E-02
  4.4324716E+06  8.3671308E-02
  4.4731781E+06  8.2392043E-02
  4.5138845E+06  8.1142564E-02
  4.5545910E+06  7.9921933E-02
  4.5952975E+06  7.8729291E-02
  4.6360039E+06  7.7563814E-02
  4.6767104E+06  7.6424708E-02
  4.7174168E+06  7.5311204E-02
  4.7581233E+06  7.4222563E-02
  4.7988297E+06  7.3158069E-02
  4.8395362E+06  7.2117033E-02
  4.8802427E+06  7.1098789E-02
  4.9209491E+06  7.0102693E-02
  4.9616556E+06  6.9128123E-02
  5.0023620E+06  6.8174479E-02
  5.0430685E+06  6.7241173E-02
  5.0837750E+06  6.6327610E-02
  5.1244814E+06  6.5433212E-02
  5.1651879E+06  6.4557423E-02
  5.2058943E+06  6.3699707E-02
  5.2466008E+06  6.2859548E-02
  5.2873072E+06  6.2036448E-02
  5.3280137E+06  6.1229930E-02
  5.3687202E+06  6.0439531E-02
  5.4094266E+06  5.9664806E-02
  5.4501331E+06  5.8905325E-02
  5.4908395E+06  5.8160673E-02
  5.5315460E+06  5.7430451E-02
  5.5722524E+06  5.6714273E-02
  5.6129589E+06  5.6011765E-02
  5.6536654E+06  5.5322566E-02
  5.6943718E+06  5.4646330E-02
  5.7350783E+06  5.3982719E-02
  5.7757847E+06  5.3331407E-02
  5.8164912E+06  5.2692081E-02
  5.8571977E+06  5.2064437E-02
  5.8979041E+06  5.1448179E-02
  5.9386106E+06  5.0843022E-02
  5.9793170E+06  5.0248692E-02
  6.0200235E+06  4.9664922E-02
  6.0607299E+06  4.9091458E-02
  6.1014364E+06  4.8528064E-02
  6.1421429E+06  4.7974508E-02
  6.1828493E+06  4.7430565E-02
  6.2235558E+06  4.6896017E-02
  6.2642622E+06  4.6370651E-02
  6.3049687E+06  4.5854262E-02
  6.3456751E+06  4.5346648E-02
  6.3863816E+06  4.4847614E-02
  6.4270881E+06  4.4356971E-02
  6.4677945E+06  4.3874532E-02
  6.5085010E+06  4.3400120E-02
  6.5492074E+06  4.2933558E-02
  6.5899139E+06  4.2474676E-02
  6.6306204E+06  4.2023309E-02
  6.6713268E+06  4.1579295E-02
  6.7120333E+06  4.1142478E-02
  6.7527397E+06  4.0712703E-02
  6.7934462E+06  4.0289823E-02
  6.8341526E+06  3.9873691E-02
  6.8748591E+06  3.9464167E-02
  6.9155656E+06  3.9061113E-02
  6.9562720E+06  3.8664395E-02
  6.9969785E+06  3.8273882E-02
  7.0376849E+06  3.7889445E-02
  7.0783914E+06  3.7510955E-02
  7.1190978E+06  3.7138285E-02
  7.1598043E+06  3.6771311E-02
  7.2005108E+06  3.6409914E-02
  7.2412172E+06  3.6053975E-02
  7.2819237E+06  3.5703381E-02
  7.3226301E+06  3.5358021E-02
  7.3633366E+06  3.5017787E-02
  7.4040431E+06  3.4682574E-02
  7.4447495E+06  3.4352280E-02
  7.4854560E+06  3.4026804E-02
  7.5261624E+06  3.3706051E-02
  7.5668689E+06  3.3389924E-02
  7.6075753E+06  3.3078333E-02
  7.6482818E+06  3.2771188E-02
  7.6889883E+06  3.2468400E-02
  7.7296947E+06  3.2169884E-02
  7.7704012E+06  3.1875558E-02
  7.8111076E+06  3.1585341E-02
  7.8518141E+06  3.1299152E-02
  7.8925205E+06  3.1016915E-02
  7.9332270E+06  3.0738555E-02
  7.9739335E+06  3.0463999E-02
  8.0146399E+06  3.0193174E-02
  8.0553464E+06  2.9926012E-02
  8.0960528E+06  2.9662448E-02
  8.1367593E+06  2.9402419E-02
  8.1774658E+06  2.9145861E-02
  8.2181722E+06  2.8892714E-02
  8.2588787E+06  2.8642919E-02
  8.2995851E+06  2.8396416E-02
  8.3402916E+06  2.8153150E-02
  8.3809980E+06  2.7913063E-02
  8.4217045E+06  2.7676102E-02
  8.4624110E+06  2.7442213E-02
  8.5031174E+06  2.7211343E-02
  8.5438239E+06  2.6983442E-02
  8.5845303E+06  2.6758459E-02
  8.6252368E+06  2.6536344E-02
  8.6659432E+06  2.6317050E-02
  8.7066497E+06  2.6100530E-02
  8.7473562E+06  2.5886737E-02
  8.7880626E+06  2.5675626E-02
  8.8287691E+06  2.5467153E-02
  8.8694755E+06  2.5261274E-02
  8.9101820E+06  2.5057947E-02
  8.9508885E+06  2.4857130E-02
  8.9915949E+06  2.4658783E-02
  9.0323014E+06  2.4462865E-02
  9.0730078E+06  2.4269336E-02
  9.1137143E+06  2.4078157E-02
  9.1544207E+06  2.3889288E-02
  9.1951272E+06  2.3702693E-02
  9.2358337E+06  2.3518333E-02
  9.2765401E+06  2.3336172E-02
  9.3172466E+06  2.3156175E-02
  9.3579530E+06  2.2978306E-02
  9.3986595E+06  2.2802532E-02
  9.4393659E+06  2.2628819E-02
  9.4800724E+06  2.2457134E-02
  9.5207789E+06  2.2287446E-02
  9.5614853E+06  2.2119721E-02
  9.6021918E+06  2.1953930E-02
  9.6428982E+06  2.1790043E-02
  9.6836047E+06  2.1628029E-02
  9.7243112E+06  2.1467859E-02
  9.7650176E+06  2.1309506E-02
  9.8057241E+06  2.1152940E-02
  9.8464305E+06  2.0998135E-02
  9.8871370E+06  2.0845064E-02
  9.9278434E+06  2.0693700E-02
  9.9685499E+06  2.0544018E-02
  1.0009256E+07  2.0395992E-02
  1.0049963E+07  2.0249597E-02
  1.0090669E+07  2.0104809E-02
  1.0131376E+07  1.9961604E-02
  1.0172082E+07  1.9819958E-02
  1.0212789E+07  1.9679850E-02
  1.0253495E+07  1.9541256E-02
  1.0294202E+07  1.9404154E-02
  1.0334908E+07  1.9268522E-02
  1.0375614E+07  1.9134340E-02
  1.0416321E+07  1.9001586E-02
  1.0457027E+07  1.8870239E-02
  1.0497734E+07  1.8740280E-02
  1.0538440E+07  1.8611689E-02
  1.0579147E+07  1.8484446E-02
  1.0619853E+07  1.8358532E-02
  1.0660560E+07  1.8233928E-02
  1.0701266E+07  1.8110617E-02
  1.0741973E+07  1.7988579E-02
  1.0782679E+07  1.7867797E-02
  1.0823386E+07  1.7748255E-02
  1.0864092E+07  1.7629933E-02
  1.0904798E+07  1.7512816E-02
  1.0945505E+07  1.7396888E-02
  1.0986211E+07  1.7282131E-02
  1.1026918E+07  1.7168530E-02
  1.1067624E+07  1.7056068E-02
  1.1108331E+07  1.6944732E-02
  1.1149037E+07  1.6834505E-02
  1.1189744E+07  1.6725372E-02
  1.1230450E+07  1.6617320E-02
  1.1271157E+07  1.6510332E-02
  1.1311863E+07  1.6404396E-02
  1.1352569E+07  1.6299498E-02
  1.1393276E+07  1.6195622E-02
  1.1433982E+07  1.6092757E-02
  1.1474689E+07  1.5990889E-02
  1.1515395E+07  1.5890004E-02
  1.1556102E+07  1.5790090E-02
  1.1596808E+07  1.5691135E-02
  1.1637515E+07  1.5593125E-02
  1.1678221E+07  1.5496050E-02
  1.1718928E+07  1.5399896E-02
  1.1759634E+07  1.5304651E-02
  1.1800341E+07  1.5210305E-02
  1.1841047E+07  1.5116846E-02
  1.1881753E+07  1.5024263E-02
  1.1922460E+07  1.4932544E-02
  1.1963166E+07  1.4841678E-02
  1.2003873E+07  1.4751655E-02
  1.2044579E+07  1.4662465E-02
  1.2085286E+07  1.4574097E-02
  1.2125992E+07  1.4486540E-02
  1.2166699E+07  1.4399785E-02
  1.2207405E+07  1.4313822E-02
  1.2248112E+07  1.4228641E-02
  1.2288818E+07  1.4144232E-02
  1.2329524E+07  1.4060586E-02
  1.2370231E+07  1.3977693E-02
  1.2410937E+07  1.3895546E-02
  1.2451644E+07  1.3814133E-02
  1.2492350E+07  1.3733447E-02
  1.2533057E+07  1.3653479E-02
  1.2573763E+07  1.3574221E-02
  1.2614470E+07  1.3495663E-02
  1.2655176E+07  1.3417797E-02
  1.2695883E+07  1.3340616E-02
  1.2736589E+07  1.3264112E-02
  1.2777295E+07  1.3188276E-02
  1.2818002E+07  1.3113101E-02
  1.2858708E+07  1.3038578E-02
  1.2899415E+07  1.2964701E-02
  1.2940121E+07  1.2891462E-02
  1.2980828E+07  1.2818854E-02
  1.3021534E+07  1.2746868E-02
  1.3062241E+07  1.2675499E-02
  1.3102947E+07  1.2604739E-02
  1.3143654E+07  1.2534582E-02
  1.3184360E+07  1.2465019E-02
  1.3225067E+07  1.2396045E-02
  1.3265773E+07  1.2327653E-02
  1.3306479E+07  1.2259837E-02
  1.3347186E+07  1.2192589E-02
  1.3387892E+07  1.2125904E-02
  1.3428599E+07  1.2059775E-02
  1.3469305E+07  1.1994196E-02
  1.3510012E+07  1.1929161E-02
  1.3550718E+07  1.1864664E-02
  1.3591425E+07  1.1800699E-02
  1.3632131E+07  1.1737260E-02
  1.3672838E+07  1.1674341E-02
  1.3713544E+07  1.1611937E-02
  1.3754250E+07  1.1550042E-02
  1.3794957E+07  1.1488650E-02
  1.3835663E+07  1.1427756E-02
  1.3876370E+07  1.1367355E-02
  1.3917076E+07  1.1307441E-02
  1.3957783E+07  1.1248008E-02
  1.3998489E+07  1.1189053E-02
  1.4039196E+07  1.1130570E-02
  1.4079902E+07  1.1072553E-02
  1.4120609E+07  1.1014997E-02
  1.4161315E+07  1.0957899E-02
  1.4202022E+07  1.0901252E-02
  1.4242728E+07  1.0845052E-02
  1.4283434E+07  1.0789295E-02
  1.4324141E+07  1.0733976E-02
  1.4364847E+07  1.0679089E-02
  1.4405554E+07  1.0624632E-02
  1.4446260E+07  1.0570598E-02
  1.4486967E+07  1.0516985E-02
  1.4527673E+07  1.0463786E-02
  1.4568380E+07  1.0410999E-02
  1.4609086E+07  1.0358618E-02
  1.4649793E+07  1.0306640E-02
  1.4690499E+07  1.0255061E-02
  1.4731205E+07  1.0203876E-02
  1.4771912E+07  1.0153082E-02
  1.4812618E+07  1.0102673E-02
  1.4853325E+07  1.0052648E-02
  1.4894031E+07  1.0003001E-02
  1.4934738E+07  9.9537282E-03
  1.4975444E+07  9.9048268E-03
  1.5016151E+07  9.8562926E-03
  1.5056857E+07  9.8081220E-03
  1.5097564E+07  9.7603112E-03
  1.5138270E+07  9.7128566E-03
  1.5178977E+07  9.6657545E-03
  1.5219683E+07  9.6190014E-03
  1.5260389E+07  9.5725939E-03
  1.5301096E+07  9.5265283E-03
  1.5341802E+07  9.4808013E-03
  1.5382509E+07  9.4354095E-03
  1.5423215E+07  9.3903496E-03
  1.5463922E+07  9.3456182E-03
  1.5504628E+07  9.3012121E-03
  1.5545335E+07  9.2571281E-03
  1.5586041E+07  9.2133630E-03
  1.5626748E+07  9.1699137E-03
  1.5667454E+07  9.1267770E-03
  1.5708160E+07  9.0839500E-03
  1.5748867E+07  9.0414295E-03
  1.5789573E+07  8.9992127E-03
  1.5830280E+07  8.9572965E-03
  1.5870986E+07  8.9156781E-03
  1.5911693E+07  8.8743546E-03
  1.5952399E+07  8.8333230E-03
  1.5993106E+07  8.7925808E-03
  1.6033812E+07  8.7521249E-03
  1.6074519E+07  8.7119528E-03
  1.6115225E+07  8.6720617E-03
  1.6155932E+07  8.6324490E-03
  1.6196638E+07  8.5931120E-03
  1.6237344E+07  8.5540480E-03
  1.6278051E+07  8.5152546E-03
  1.6318757E+07  8.4767292E-03
  1.6359464E+07  8.4384692E-03
  1.6400170E+07  8.4004722E-03
  1.6440877E+07  8.3627357E-03
  1.6481583E+07  8.3252574E-03
  1.6522290E+07  8.2880347E-03
  1.6562996E+07  8.2510653E-03
  1.6603703E+07  8.2143469E-03
  1.6644409E+07  8.1778772E-03
  1.6685115E+07  8.1416539E-03
  1.6725822E+07  8.1056746E-03
  1.6766528E+07  8.0699373E-03
  1.6807235E+07  8.0344397E-03
  1.6847941E+07  7.9991795E-03
  1.6888648E+07  7.9641547E-03
  1.6929354E+07  7.9293630E-03
  1.6970061E+07  7.8948025E-03
  1.7010767E+07  7.8604710E-03
  1.7051474E+07  7.8263664E-03
  1.7092180E+07  7.7924867E-03
  1.7132886E+07  7.7588299E-03
  1.7173593E+07  7.7253940E-03
  1.7214299E+07  7.6921771E-03
  1.7255006E+07  7.6591771E-03
  1.7295712E+07  7.6263922E-03
  1.7336419E+07  7.5938205E-03
  1.7377125E+07  7.5614601E-03
  1.7417832E+07  7.5293090E-03
  1.7458538E+07  7.4973656E-03
  1.7499245E+07  7.4656279E-03
  1.7539951E+07  7.4340942E-03
  1.7580658E+07  7.4027627E-03
  1.7621364E+07  7.3716318E-03
  1.7662070E+07  7.3406997E-03
  1.7702777E+07  7.3099648E-03
  1.7743483E+07  7.2794255E-03
  1.7784190E+07  7.2490802E-03
  1.7824896E+07  7.2189271E-03
  1.7865603E+07  7.1889648E-03
  1.7906309E+07  7.1591916E-03
  1.7947016E+07  7.1296059E-03
  1.7987722E+07  7.1002064E-03
  1.8028429E+07  7.0709913E-03
  1.8069135E+07  7.0419591E-03
  1.8109841E+07  7.0131085E-03
  1.8150548E+07  6.9844379E-03
  1.8191254E+07  6.9559458E-03
  1.8231961E+07  6.9276307E-03
  1.8272667E+07  6.8994913E-03
  1.8313374E+07  6.8715261E-03
  1.8354080E+07  6.8437336E-03
  1.8394787E+07  6.8161126E-03
  1.8435493E+07  6.7886615E-03
  1.8476200E+07  6.7613791E-03
  1.8516906E+07  6.7342639E-03
  1.8557613E+07  6.7073147E-03
  1.8598319E+07  6.6805301E-03
  1.8639025E+07  6.6539087E-03
  1.8679732E+07  6.6274493E-03
  1.8720438E+07  6.6011506E-03
  1.8761145E+07  6.5750113E-03
  1.8801851E+07  6.5490302E-03
  1.8842558E+07  6.5232059E-03
  1.8883264E+07  6.4975372E-03
  1.8923971E+07  6.4720230E-03
  1.8964677E+07  6.4466620E-03
  1.9005384E+07  6.4214529E-03
  1.9046090E+07  6.3963946E-03
  1.9086796E+07  6.3714859E-03
  1.9127503E+07  6.3467257E-03
  1.9168209E+07  6.3221127E-03
  1.9208916E+07  6.2976459E-03
  1.9249622E+07  6.2733240E-03
  1.9290329E+07  6.2491460E-03
  1.9331035E+07  6.2251107E-03
  1.9371742E+07  6.2012171E-03
  1.9412448E+07  6.1774640E-03
  1.9453155E+07  6.1538504E-03
  1.9493861E+07  6.1303751E-03
  1.9534568E+07  6.1070372E-03
  1.9575274E+07  6.0838355E-03
  1.9615980E+07  6.0607690E-03
  1.9656687E+07  6.0378367E-03
  1.9697393E+07  6.0150376E-03
  1.9738100E+07  5.9923706E-03
  1.9778806E+07  5.9698347E-03
  1.9819513E+07  5.9474290E-03
  1.9860219E+07  5.9251524E-03
  1.9900926E+07  5.9030040E-03
  1.9941632E+07  5.8809828E-03
  1.9982339E+07  5.8590879E-03
  2.0023045E+07  5.8373182E-03
  2.0063751E+07  5.8156729E-03
  2.0104458E+07  5.7941509E-03
  2.0145164E+07  5.7727513E-03
  2.0185871E+07  5.7514731E-03
  2.0226577E+07  5.7303155E-03
  2.0267284E+07  5.7092773E-03
  2.0307990E+07  5.6883579E-03
  2.0348697E+07  5.6675561E-03
  2.0389403E+07  5.6468711E-03
  2.0430110E+07  5.6263020E-03
  2.0470816E+07  5.6058479E-03
  2.0511523E+07  5.5855079E-03
  2.0552229E+07  5.5652812E-03
  2.0592935E+07  5.5451668E-03
  2.0633642E+07  5.5251640E-03
  2.0674348E+07  5.5052718E-03
  2.0715055E+07  5.4854895E-03
  2.0755761E+07  5.4658162E-03
  2.0796468E+07  5.4462511E-03
  2.0837174E+07  5.4267933E-03
  2.0877881E+07  5.4074421E-03
  2.0918587E+07  5.3881967E-03
  2.0959294E+07  5.3690562E-03
  2.1000000E+07  5.3500199E-03
  
